<?xml version="1.0" encoding="UTF-8"?>
<!-- Generator: visioncortex VTracer 0.6.12 -->
<svg version="1.1" xmlns="http://www.w3.org/2000/svg" width="342" height="226">
<path d="M0 0 C0.99 0 1.98 0 3 0 C3 0.66 3 1.32 3 2 C3.99 2.33 4.98 2.66 6 3 C6.436 3.687 6.871 4.374 7.32 5.082 C7.875 5.715 8.429 6.348 9 7 C11.742 7.137 11.742 7.137 14.875 6.688 C18.91 6.136 22.038 5.984 26 7 C26 7.66 26 8.32 26 9 C24.68 8.67 23.36 8.34 22 8 C23.553 13.055 25.143 17.511 28 22 C28 22.66 28 23.32 28 24 C27.34 24 26.68 24 26 24 C23.36 19.05 20.72 14.1 18 9 C16.68 9 15.36 9 14 9 C14.3 9.699 14.601 10.397 14.91 11.117 C15.1 11.572 15.1 11.572 16.062 13.875 C16.445 14.78 16.828 15.685 17.223 16.617 C18 19 18 19 17 21 C13.125 14.25 13.125 14.25 12 12 C9.937 11.375 9.937 11.375 8 11 C8.351 11.907 8.701 12.815 9.062 13.75 C9.965 16.878 10.134 18.052 9 21 C7 18 7 18 7 15 C6.34 15 5.68 15 5 15 C5.144 14.598 5.144 14.598 5.875 12.562 C6.063 7.219 3.161 4.123 0 0 Z " fill="#a06518" transform="translate(26,45)"/>
<path d="M0 0 C0 0.66 0 1.32 0 2 C-1.65 2 -3.3 2 -5 2 C-5.33 2.66 -5.66 3.32 -6 4 C-6.825 3.835 -6.825 3.835 -11 3 C-10.7 3.771 -10.399 4.542 -10.09 5.336 C-9.71 6.339 -9.329 7.342 -8.938 8.375 C-8.555 9.373 -8.172 10.37 -7.777 11.398 C-7 14 -7 14 -8 16 C-10 14 -10 14 -11.438 10.438 C-11.953 9.303 -12.469 8.169 -13 7 C-13.99 6.67 -14.98 6.34 -16 6 C-15.67 8.64 -15.34 11.28 -15 14 C-15.66 13.67 -16.32 13.34 -17 13 C-17 12.34 -17 11.68 -17 11 C-17.99 11.66 -18.98 12.32 -20 13 C-20.732 18.043 -20.732 18.043 -20 21 C-16.935 23.717 -14.07 25.374 -10 26 C-10 26.66 -10 27.32 -10 28 C-6.877 27.514 -4.004 27.001 -1 26 C-0.298 24.685 0.365 23.349 1 22 C2.625 20.25 2.625 20.25 4 19 C4.66 19.33 5.32 19.66 6 20 C3.36 23.3 0.72 26.6 -2 30 C3.819 27.946 6.236 25.84 10 21 C10.66 21 11.32 21 12 21 C11.67 21.598 11.34 22.196 11 22.812 C10 25 10 25 10 28 C8 31 8 31 6.188 31.582 C-2.955 32.545 -10.339 31.22 -17.883 25.797 C-21.329 22.872 -24.205 19.541 -27 16 C-26.34 15.67 -25.68 15.34 -25 15 C-24.34 15.33 -23.68 15.66 -23 16 C-23.33 13.69 -23.66 11.38 -24 9 C-23.01 9 -22.02 9 -21 9 C-19.387 7.793 -19.387 7.793 -17.688 6.188 C-11.887 1.054 -7.641 -0.395 0 0 Z " fill="#a06518" transform="translate(86,51)"/>
<path d="M0 0 C3.366 0.067 6.012 0.196 8.695 2.379 C13.87 8.191 16.493 14.021 16.238 21.844 C15.918 24.743 15.104 27.309 14 30 C13.34 29.67 12.68 29.34 12 29 C12 28.01 12 27.02 12 26 C11.01 26.33 10.02 26.66 9 27 C9 26.01 9 25.02 9 24 C9.66 23.546 10.32 23.093 11 22.625 C13 21 13 21 13.375 18.5 C13 16 13 16 11 13 C11 11.68 11 10.36 11 9 C10.34 9 9.68 9 9 9 C8.67 9.66 8.34 10.32 8 11 C7.34 11 6.68 11 6 11 C6.33 9.02 6.66 7.04 7 5 C6.01 4.67 5.02 4.34 4 4 C3.896 4.278 3.896 4.278 3.371 5.688 C0.241 13.441 -4.266 20.25 -12 24 C-11.691 23.402 -11.381 22.804 -11.062 22.188 C-10 20 -10 20 -9 17 C-8.67 16.01 -8.34 15.02 -8 14 C-7.01 14.33 -6.02 14.66 -5 15 C-4.67 13.68 -4.34 12.36 -4 11 C-2.68 11 -1.36 11 0 11 C0.195 9.543 0.381 8.084 0.562 6.625 C0.667 5.813 0.771 5.001 0.879 4.164 C1 2 1 2 0 0 Z " fill="#a06518" transform="translate(88,53)"/>
<path d="M0 0 C1.942 0.976 3.832 1.993 5.699 3.105 C5.699 4.095 5.699 5.085 5.699 6.105 C4.074 6.793 4.074 6.793 1.699 7.105 C0.771 6.61 -0.157 6.115 -1.113 5.605 C-5.043 3.756 -7.141 4.066 -11.301 5.105 C-13.301 7.105 -13.301 7.105 -13.426 10.73 C-13.385 11.844 -13.343 12.958 -13.301 14.105 C-3.687 18.999 -3.687 18.999 0.574 20.605 C4.172 22.332 5.674 23.678 7.699 27.105 C8.813 30.579 9.222 32.835 7.812 36.262 C6.053 39.326 4.439 41.598 1.512 43.605 C-5.296 44.816 -11.361 45.065 -17.301 41.105 C-19.676 39.043 -19.676 39.043 -21.301 37.105 C-21.301 36.445 -21.301 35.785 -21.301 35.105 C-19.676 34.355 -19.676 34.355 -17.301 34.105 C-15.301 35.439 -13.301 36.772 -11.301 38.105 C-6.641 39.25 -3.546 39.478 0.699 37.105 C2.099 34.307 1.952 32.2 1.699 29.105 C-1.218 25.197 -5.898 24.153 -10.293 22.484 C-14.577 20.52 -17.574 18.527 -19.738 14.293 C-20.458 10.216 -19.919 7.906 -18.301 4.105 C-13.154 -0.909 -6.821 -2.652 0 0 Z " fill="#a06518" transform="translate(150.30078125,62.89453125)"/>
<path d="M0 0 C1.32 0 2.64 0 4 0 C4.015 1.171 4.029 2.342 4.044 3.548 C4.102 7.883 4.179 12.218 4.262 16.553 C4.296 18.431 4.324 20.309 4.346 22.187 C4.38 24.883 4.432 27.578 4.488 30.273 C4.495 31.116 4.501 31.959 4.508 32.827 C4.568 35.193 4.568 35.193 5 39 C5.99 39.66 6.98 40.32 8 41 C7.67 42.32 7.34 43.64 7 45 C4.125 44.75 4.125 44.75 1 44 C-1.86 40.349 -1.27 35.776 -1.23 31.367 C-1.23 30.534 -1.23 29.701 -1.229 28.843 C-1.226 27.086 -1.218 25.329 -1.206 23.573 C-1.188 20.878 -1.185 18.183 -1.186 15.488 C-1.181 13.781 -1.175 12.074 -1.168 10.367 C-1.167 9.559 -1.166 8.751 -1.165 7.918 C-1.116 2.232 -1.116 2.232 0 0 Z " fill="#a06518" transform="translate(223,62)"/>
<path d="M0 0 C1.675 0.286 3.344 0.618 5 1 C4.913 2.605 4.804 4.209 4.688 5.812 C4.629 6.706 4.571 7.599 4.512 8.52 C3.933 11.327 3.278 12.307 1 14 C0.34 14 -0.32 14 -1 14 C-0.814 12.866 -0.629 11.731 -0.438 10.562 C-0.293 9.387 -0.149 8.211 0 7 C-0.33 6.67 -0.66 6.34 -1 6 C-1.125 3.5 -1.125 3.5 -1 1 C-0.67 0.67 -0.34 0.34 0 0 Z " fill="#a06518" transform="translate(272,63)"/>
<path d="M0 0 C1.98 0.66 3.96 1.32 6 2 C6 2.66 6 3.32 6 4 C4.35 3.67 2.7 3.34 1 3 C1 5.25 1 5.25 2 8 C4.527 9.672 7.199 10.858 10 12 C6.234 13.255 4.628 12.371 1 11 C1 11.66 1 12.32 1 13 C0.34 13 -0.32 13 -1 13 C-1.027 11.208 -1.046 9.417 -1.062 7.625 C-1.074 6.627 -1.086 5.63 -1.098 4.602 C-1 2 -1 2 0 0 Z " fill="#a06518" transform="translate(26,65)"/>
<path d="M0 0 C2.062 0.438 2.062 0.438 4 1 C4.33 3.31 4.66 5.62 5 8 C6.98 8.66 8.96 9.32 11 10 C11 10.99 11 11.98 11 13 C8.69 13 6.38 13 4 13 C4.11 16.292 4.24 19.584 4.375 22.875 C4.406 23.812 4.437 24.749 4.469 25.715 C4.507 26.611 4.546 27.507 4.586 28.43 C4.617 29.257 4.649 30.085 4.681 30.937 C5 33 5 33 7 35 C9.625 35.625 9.625 35.625 12 36 C11.67 37.32 11.34 38.64 11 40 C6.949 40.397 4.72 40.48 1.281 38.188 C-2.093 33.473 -1.547 29.328 -1.312 23.688 C-1.301 23.174 -1.301 23.174 -1.244 20.576 C-1.185 18.049 -1.103 15.525 -1 13 C-2.65 12.67 -4.3 12.34 -6 12 C-5.67 11.01 -5.34 10.02 -5 9 C-2.938 8.312 -2.938 8.312 -1 8 C-1.021 6.866 -1.041 5.731 -1.062 4.562 C-1 1 -1 1 0 0 Z " fill="#a06518" transform="translate(169,67)"/>
<path d="M0 0 C2.808 2.648 5.15 5.134 7.25 8.375 C10.37 12.893 14.573 15.839 19 19 C20.031 19.763 21.062 20.526 22.125 21.312 C25.429 23.252 28.289 24.109 32 25 C30 27 30 27 27 28 C25.832 29.629 25.832 29.629 24.812 31.562 C24.214 32.697 23.616 33.831 23 35 C22.375 33.188 22.375 33.188 22 31 C22.66 30.01 23.32 29.02 24 28 C24 27.01 24 26.02 24 25 C23.01 24.67 22.02 24.34 21 24 C20.67 25.32 20.34 26.64 20 28 C19.34 28 18.68 28 18 28 C17.67 27.34 17.34 26.68 17 26 C16.175 26.495 16.175 26.495 12 29 C12 26 12 26 14.5 23.312 C14.913 22.931 14.913 22.931 17 21 C14.69 21.66 12.38 22.32 10 23 C10 22.34 10 21.68 10 21 C10.99 21 11.98 21 13 21 C12.67 19.68 12.34 18.36 12 17 C10.68 17 9.36 17 8 17 C8 15.68 8 14.36 8 13 C6.964 12.939 5.927 12.879 4.859 12.816 C3.49 12.732 2.12 12.647 0.75 12.562 C0.068 12.523 -0.614 12.484 -1.316 12.443 C-4.644 12.233 -7.803 11.981 -11 11 C-10.34 12.65 -9.68 14.3 -9 16 C-9.66 16.33 -10.32 16.66 -11 17 C-13.153 13.142 -14.393 10.449 -14 6 C-13.34 6.33 -13.34 6.33 -10 8 C-10 8.66 -10 9.32 -10 10 C-5.38 10 -0.76 10 4 10 C3.67 9.01 3.34 8.02 3 7 C-0.062 5.812 -0.062 5.812 -3 5 C-2.01 3.35 -1.02 1.7 0 0 Z " fill="#a06518" transform="translate(40,73)"/>
<path d="M0 0 C3.803 2.005 5.618 3.427 8 7 C8.414 9.262 8.414 9.262 8.625 11.688 C8.7 12.496 8.775 13.304 8.852 14.137 C8.876 14.444 8.876 14.444 9 16 C3.178 18.166 -2.024 18.103 -8.207 17.875 C-11 18 -11 18 -13 20 C-11.532 24.649 -11.532 24.649 -9.211 26.18 C-6.657 27.127 -5.063 27.092 -2.375 26.75 C-1.599 26.662 -0.823 26.575 -0.023 26.484 C2 26 2 26 4 24 C4.99 24 5.98 24 7 24 C7.33 24.99 7.66 25.98 8 27 C5.246 30.029 2.742 31.753 -1.367 32.336 C-7.095 32.425 -10.564 32.003 -15 28 C-18.592 22.921 -19.676 18.178 -19 12 C-18.194 9.507 -17.177 7.355 -16 5 C-15.34 5 -14.68 5 -14 5 C-13.67 4.01 -13.34 3.02 -13 2 C-8.914 -0.659 -4.717 -0.678 0 0 Z M-13 8 C-13.133 11.148 -13.133 11.148 -13 14 C-10.542 14.027 -8.083 14.047 -5.625 14.062 C-5.276 14.067 -5.276 14.067 -3.508 14.088 C1.773 14.113 1.773 14.113 4 13 C3.812 10.188 3.812 10.188 3 7 C0.326 4.708 -1.524 4.069 -5 3.562 C-8.829 4.121 -10.425 5.122 -13 8 Z " fill="#a06518" transform="translate(205,75)"/>
<path d="M0 0 C3.768 1.638 5.831 3.544 8 7 C8.432 9.565 8.432 9.565 8.512 12.422 C8.529 12.934 8.529 12.934 8.619 15.527 C8.642 16.591 8.664 17.654 8.688 18.75 C8.705 19.289 8.705 19.289 8.791 22.02 C8.873 24.68 8.943 27.339 9 30 C6.625 30.625 6.625 30.625 4 31 C3.34 30.34 2.68 29.68 2 29 C1.526 29.495 1.051 29.99 0.562 30.5 C-3.222 32.715 -6.716 32.71 -11 32 C-13.87 30.206 -15.491 29.017 -17 26 C-17.41 22.308 -17.284 20.48 -15.375 17.25 C-10.274 12.418 -3.693 12.503 3 12 C2.398 9.98 1.727 7.979 1 6 C-2.03 4.485 -4.651 4.83 -8 5 C-10.938 6 -10.938 6 -13 7 C-13.33 5.68 -13.66 4.36 -14 3 C-9.525 -0.464 -5.444 -0.732 0 0 Z M-12 20 C-12.288 22.735 -12.344 24.412 -10.938 26.812 C-7.897 28.676 -5.482 28.366 -2 28 C0.375 27.062 0.375 27.062 2 25 C2.626 22.008 2.872 19.051 3 16 C-2.283 15.677 -7.998 15.998 -12 20 Z " fill="#a06518" transform="translate(253,75)"/>
<path d="M0 0 C0.495 0.33 0.99 0.66 1.5 1 C1.17 2.32 0.84 3.64 0.5 5 C-0.016 4.835 -0.531 4.67 -1.062 4.5 C-4.252 3.846 -7.254 3.878 -10.5 4 C-11.5 5 -11.5 5 -11.562 7.562 C-11.542 8.367 -11.521 9.171 -11.5 10 C-10.596 10.326 -9.693 10.652 -8.762 10.988 C-8.172 11.207 -8.172 11.207 -5.188 12.312 C-4.016 12.742 -2.844 13.171 -1.637 13.613 C1.154 14.847 2.746 15.552 4.5 18 C5.049 22.945 4.622 26.069 1.5 30 C-3.472 31.657 -9.65 32.241 -14.555 30.105 C-16.188 29 -16.188 29 -18.5 27 C-17.84 25.68 -17.18 24.36 -16.5 23 C-15.675 23.495 -14.85 23.99 -14 24.5 C-9.715 26.336 -7.114 26.313 -2.5 26 C-1.5 25 -1.5 25 -1.438 22.438 C-1.458 21.633 -1.479 20.829 -1.5 20 C-2.49 19.588 -3.48 19.175 -4.5 18.75 C-5.133 18.473 -5.766 18.196 -6.418 17.91 C-7.829 17.294 -9.248 16.698 -10.676 16.121 C-14.327 14.526 -16.125 13.639 -18.188 10.125 C-18.592 6.081 -17.828 4.305 -15.5 1 C-10.969 -1.848 -4.919 -1.968 0 0 Z " fill="#a06518" transform="translate(302.5,76)"/>
<path d="M0 0 C0.303 0.139 0.303 0.139 1.836 0.84 C7.938 3.478 13.364 4.718 20 5 C20 5.66 20 6.32 20 7 C12.532 7.407 6.294 6.196 0 2 C0 1.34 0 0.68 0 0 Z " fill="#a06518" transform="translate(68,82)"/>
<path d="M0 0 C0.66 0.33 1.32 0.66 2 1 C1.506 5.28 -0.934 8.175 -4 11 C-8.231 14.002 -12.582 16.855 -17.277 19.078 C-19 20 -19 20 -20 22 C-19.34 22.33 -18.68 22.66 -18 23 C-22.75 24.125 -22.75 24.125 -25 23 C-23.125 19.125 -23.125 19.125 -22 18 C-22.66 17.67 -23.32 17.34 -24 17 C-24 16.34 -24 15.68 -24 15 C-23.645 14.976 -23.645 14.976 -21.848 14.852 C-21.388 14.814 -21.388 14.814 -19.062 14.625 C-18.146 14.555 -17.229 14.486 -16.285 14.414 C-15.908 14.346 -15.908 14.346 -14 14 C-13.67 13.34 -13.34 12.68 -13 12 C-16.3 11.67 -19.6 11.34 -23 11 C-22.67 10.34 -22.34 9.68 -22 9 C-21.131 9.035 -20.262 9.07 -19.367 9.105 C-7.68 9.38 -7.68 9.38 -3 6 C-2.67 5.34 -2.34 4.68 -2 4 C-3.32 3.67 -4.64 3.34 -6 3 C-4.035 1.932 -2.031 0.934 0 0 Z " fill="#a06518" transform="translate(98,84)"/>
<path d="M0 0 C4.62 0 9.24 0 14 0 C11.681 1.546 9.494 2.796 7 4 C9.36 6.36 10.779 6.491 14 7 C14.33 7.99 14.66 8.98 15 10 C16.65 10 18.3 10 20 10 C20.33 9.01 20.66 8.02 21 7 C21.66 7.66 22.32 8.32 23 9 C22.34 9.33 22.34 9.33 19 11 C19 11.99 19 12.98 19 14 C20.98 14 22.96 14 25 14 C25.33 15.32 25.66 16.64 26 18 C15.794 15.633 8.501 8.939 1 2 C0.67 1.34 0.34 0.68 0 0 Z " fill="#a06518" transform="translate(35,96)"/>
<path d="M0 0 C0.785 -0.017 1.57 -0.035 2.378 -0.053 C5.819 -0.05 8.176 0.044 11.164 1.832 C11.646 2.321 12.128 2.809 12.625 3.312 C11.98 3.295 11.98 3.295 8.715 3.207 C6.997 3.179 5.28 3.152 3.562 3.125 C2.715 3.1 1.867 3.075 0.994 3.049 C-4.676 2.983 -8.268 3.912 -13.375 6.312 C-17.312 6 -17.312 6 -20.375 5.312 C-20.045 4.323 -19.715 3.332 -19.375 2.312 C-12.952 0.505 -6.635 0.069 0 0 Z " fill="#a06518" transform="translate(102.375,101.6875)"/>
<path d="M0 0 C-0.33 0.66 -0.66 1.32 -1 2 C-3.56 2.209 -6.061 2.321 -8.625 2.375 C-14.78 2.608 -18.996 3.122 -24 7 C-24 7.99 -24 8.98 -24 10 C-25.875 9.688 -25.875 9.688 -28 9 C-28.66 8.01 -29.32 7.02 -30 6 C-19.631 0.556 -11.6 -0.814 0 0 Z " fill="#a06518" transform="translate(116,108)"/>
<path d="M0 0 C2.64 0.66 5.28 1.32 8 2 C5.765 4.235 3.976 5.002 1.062 6.188 C0.187 6.552 -0.688 6.917 -1.59 7.293 C-4 8 -4 8 -7 7 C-4 5 -4 5 -2 4 C-0.875 1.938 -0.875 1.938 0 0 Z " fill="#a06518" transform="translate(70,109)"/>
<path d="M0 0 C0.66 0.165 0.66 0.165 4 1 C4.33 5.95 4.66 10.9 5 16 C5.505 15.742 5.505 15.742 8.062 14.438 C12.046 12.755 14.786 12.751 19 14 C22.436 16.764 24.223 18.693 25 23 C25.213 25.998 25.185 28.995 25.188 32 C25.2 32.807 25.212 33.614 25.225 34.445 C25.226 34.836 25.226 34.836 25.23 36.812 C25.235 37.52 25.239 38.228 25.243 38.957 C24.962 41.318 24.166 42.944 23 45 C22.01 45 21.02 45 20 45 C19.985 44.319 19.971 43.638 19.956 42.936 C19.881 39.853 19.785 36.77 19.688 33.688 C19.665 32.616 19.642 31.544 19.619 30.439 C19.601 29.925 19.601 29.925 19.512 27.324 C19.486 26.376 19.459 25.428 19.432 24.452 C18.933 21.62 18.293 20.687 16 19 C13.809 18.785 13.809 18.785 11.438 19.062 C10.652 19.136 9.867 19.209 9.059 19.285 C7 20 7 20 5.897 21.747 C4.915 24.214 4.688 26.118 4.586 28.766 C4.547 29.655 4.509 30.545 4.469 31.461 C4.438 32.381 4.407 33.302 4.375 34.25 C4.356 34.718 4.356 34.718 4.258 37.086 C4.164 39.39 4.078 41.695 4 44 C2.062 44.562 2.062 44.562 0 45 C-1.944 43.056 -1.129 40.122 -1.139 37.534 C-1.138 37.081 -1.138 37.081 -1.133 34.785 C-1.134 33.859 -1.135 32.933 -1.136 31.979 C-1.136 30.016 -1.135 28.053 -1.13 26.09 C-1.125 23.079 -1.13 20.068 -1.137 17.057 C-1.136 15.154 -1.135 13.251 -1.133 11.348 C-1.135 10.442 -1.137 9.537 -1.139 8.605 C-1.136 7.767 -1.133 6.93 -1.129 6.067 C-1.129 5.328 -1.128 4.589 -1.127 3.828 C-1 2 -1 2 0 0 Z " fill="#a06518" transform="translate(194,139)"/>
<path d="M0 0 C3.883 1.327 7.538 3.67 10 7 C10 7.99 10 8.98 10 10 C6.489 10.401 5.28 10.207 2.375 8.062 C1.591 7.382 0.808 6.701 0 6 C-5.282 4.239 -9.377 4.204 -14.312 6.625 C-18.161 10.026 -19.76 13.274 -20.469 18.367 C-20.527 24.961 -20.53 30.198 -16.414 35.578 C-13.287 38.722 -10.254 39.097 -6 39.312 C-2.26 39.214 -0.007 38.319 3 36 C3.248 35.711 3.248 35.711 4.5 34.25 C4.995 33.838 5.49 33.425 6 33 C8.688 33.312 8.688 33.312 11 34 C8.875 38.958 6.246 41.366 1.438 43.812 C-4.303 45.751 -10.613 45.625 -16.117 42.984 C-22.149 38.894 -25.579 34.223 -27 27 C-27.805 19.755 -26.903 13.264 -23 7 C-15.919 0.101 -9.72 -0.857 0 0 Z " fill="#a06518" transform="translate(85,140)"/>
<path d="M0 0 C1.32 0.66 2.64 1.32 4 2 C4 4.31 4 6.62 4 9 C5.98 9 7.96 9 10 9 C10.33 9.66 10.66 10.32 11 11 C10.67 11.66 10.34 12.32 10 13 C8.35 13.33 6.7 13.66 5 14 C5 20.6 5 27.2 5 34 C6.98 34.66 8.96 35.32 11 36 C11 37.32 11 38.64 11 40 C7.821 41.399 6.699 40.893 3.312 39.688 C0 38 0 38 -1 36 C-1.084 34.333 -1.107 32.662 -1.098 30.992 C-1.094 30.006 -1.091 29.02 -1.088 28.004 C-1.08 26.971 -1.071 25.939 -1.062 24.875 C-1.058 23.835 -1.053 22.794 -1.049 21.723 C-1.037 19.148 -1.021 16.574 -1 14 C-1.825 13.67 -1.825 13.67 -6 12 C-5.34 11.01 -4.68 10.02 -4 9 C-3.01 9 -2.02 9 -1 9 C-1.021 7.701 -1.041 6.401 -1.062 5.062 C-1.084 3.708 -1.071 2.352 -1 1 C-0.67 0.67 -0.34 0.34 0 0 Z " fill="#a06518" transform="translate(265,144)"/>
<path d="M0 0 C3.81 3.175 5.898 6.439 6.602 11.309 C6.789 16.9 6.06 21.03 3.25 25.875 C-0.496 29.535 -2.974 30.444 -8.188 30.438 C-15.282 30.181 -15.282 30.181 -18.375 27.938 C-22.053 23.195 -23.856 19.097 -23.656 13.023 C-23.021 8.494 -22.232 5.531 -19.5 1.812 C-13.034 -2.743 -7.169 -2.933 0 0 Z M-16.75 5.875 C-18.647 10.415 -19.441 15.176 -17.562 19.812 C-16.034 22.395 -15.05 24.043 -12.75 25.875 C-10.594 26.238 -10.594 26.238 -8.25 26.188 C-7.863 26.186 -7.863 26.186 -5.906 26.176 C-3.75 25.875 -3.75 25.875 -0.75 23.875 C1.332 20.228 2.507 16.578 1.875 12.387 C0.666 8.54 -0.462 5.381 -3.75 2.875 C-5.871 2.477 -5.871 2.477 -8.188 2.5 C-8.568 2.496 -8.568 2.496 -10.496 2.477 C-13.359 2.983 -14.68 3.841 -16.75 5.875 Z " fill="#a06518" transform="translate(146.75,154.125)"/>
<path d="M0 0 C1.32 0.99 2.64 1.98 4 3 C4.392 2.505 4.784 2.01 5.188 1.5 C7.551 -0.456 9.014 -0.242 12 0 C12 1.32 12 2.64 12 4 C11.536 4.083 11.536 4.083 9.188 4.5 C6 6 6 6 4.125 9.312 C2.583 14.171 2.857 19.003 3.09 24.047 C3 27.006 2.547 28.521 1 31 C0.01 30.67 -0.98 30.34 -2 30 C-4.114 25.772 -3.229 20.207 -3.25 15.562 C-3.271 14.404 -3.291 13.246 -3.312 12.053 C-3.318 10.943 -3.323 9.834 -3.328 8.691 C-3.337 7.672 -3.347 6.654 -3.356 5.604 C-2.953 2.657 -2.313 1.789 0 0 Z " fill="#a06518" transform="translate(106,153)"/>
<path d="M0 0 C2.562 2.625 2.562 2.625 4 5 C1.688 5.625 1.688 5.625 -1 6 C-1.99 5.34 -2.98 4.68 -4 4 C-8.341 3.437 -10.277 3.481 -13.875 6.062 C-16.447 9.617 -17 11.62 -17 16 C-15.993 19.537 -14.631 22.369 -12 25 C-4.948 25.569 -4.948 25.569 -1.5 23.5 C-1.005 23.005 -0.51 22.51 0 22 C1.32 22.66 2.64 23.32 4 24 C2.419 26.811 1.59 28.194 -1 30 C-6.222 31.068 -11.424 31.191 -16.332 28.922 C-20.15 25.996 -22.046 22.804 -22.848 18.074 C-23.295 11.99 -22.458 7.337 -18.574 2.484 C-13.198 -2.585 -6.606 -2.933 0 0 Z " fill="#a06518" transform="translate(182,154)"/>
<path d="M0 0 C3.038 2.502 4.751 5.252 6 9 C6 11.31 6 13.62 6 16 C-1.26 16 -8.52 16 -16 16 C-13.605 23.185 -13.605 23.185 -11 25 C-6.637 25.833 -2.91 25.446 1.062 23.5 C1.702 23.005 2.341 22.51 3 22 C3.33 23.65 3.66 25.3 4 27 C-1.509 30.784 -6.484 31.069 -13 30 C-16.863 28.002 -19.166 25.341 -21.438 21.688 C-22.825 15.057 -22.571 9.639 -19.207 3.66 C-14.459 -2.871 -6.835 -2.705 0 0 Z M-14 5 C-14.66 5.66 -15.32 6.32 -16 7 C-16 8.65 -16 10.3 -16 12 C-10.39 12 -4.78 12 1 12 C0 6 0 6 -2.875 3.625 C-7.749 1.09 -9.646 2.097 -14 5 Z " fill="#a06518" transform="translate(248,154)"/>
</svg>
